Coordinates
version=1
nRows=7
nColumns=40
inDegrees=yes

Units are S.I. units (second, meters, Newtons, ...)
Angles are in degrees.

endheader
time	pelvis_tilt	pelvis_list	pelvis_rotation	pelvis_tx	pelvis_ty	pelvis_tz	hip_flexion_r	hip_adduction_r	hip_rotation_r	knee_angle_r	knee_angle_r_beta	ankle_angle_r	subtalar_angle_r	mtp_angle_r	hip_flexion_l	hip_adduction_l	hip_rotation_l	knee_angle_l	knee_angle_l_beta	ankle_angle_l	subtalar_angle_l	mtp_angle_l	lumbar_extension	lumbar_bending	lumbar_rotation	arm_flex_r	arm_add_r	arm_rot_r	elbow_flex_r	pro_sup_r	wrist_flex_r	wrist_dev_r	arm_flex_l	arm_add_l	arm_rot_l	elbow_flex_l	pro_sup_l	wrist_flex_l	wrist_dev_l
      9.20750000	     -5.43504484	     -4.17381485	      5.29559476	      1.04803561	      0.92274718	      0.44628448	      6.57869928	     -3.85753481	    -13.21297357	     31.38136173	     31.38136173	     13.28218912	     -7.22952998	     -9.33926071	     25.75555199	     -3.95730566	      0.45564129	     25.99627587	     25.99627587	      8.82587846	    -11.74191486	      3.68015540	     -8.46736026	      2.56797247	      3.56089473	     22.41843084	    -11.64537802	      9.45856434	     71.65494311	     45.56356382	      0.00000000	      0.00000000	      0.60798287	     -7.94453803	    -14.81724524	     29.18257583	     46.04582898	      0.00000000	      0.00000000
      9.22057143	     -5.21356791	     -4.13059523	      5.04609599	      1.04882862	      0.92341672	      0.44373173	      7.97761323	     -4.48781876	    -12.55444470	     34.96711482	     34.96711482	     12.13585631	     -8.38714638	     -9.99088089	     25.06999626	     -3.96191513	     -0.00814389	     26.10032741	     26.10032741	      9.41848821	    -11.35063163	      3.39485423	     -8.66824719	      2.45287905	      3.80462969	     21.18606880	    -11.94381573	      9.85464785	     69.56203335	     45.61037428	      0.00000000	      0.00000000	      1.38845930	     -8.12575435	    -14.73368821	     29.99278551	     46.04668120	      0.00000000	      0.00000000
      9.23364286	     -5.10170093	     -4.34524143	      4.77203294	      1.04947743	      0.92391762	      0.44167676	      9.56592917	     -4.60367269	    -11.49899669	     38.37655709	     38.37655709	     10.30701184	    -10.53119764	    -11.26184363	     24.58688726	     -4.38154381	     -0.81660185	     26.29913119	     26.29913119	     10.18936536	    -10.17860010	      2.95817527	     -8.54311340	      2.59703741	      3.20305871	     21.46055637	    -11.26549462	     10.89607532	     63.23404096	     45.76427208	      0.00000000	      0.00000000	      1.11559416	     -8.60976611	    -13.98224163	     31.96818222	     45.94481495	      0.00000000	      0.00000000
      9.24671429	     -5.01080948	     -4.32976966	      4.48873194	      1.04983892	      0.92426201	      0.43954712	     11.37221194	     -5.12808248	    -10.75277288	     42.13020179	     42.13020179	      9.07546578	    -11.45652873	    -11.27076574	     24.04401149	     -4.47452766	     -1.48729540	     26.35848101	     26.35848101	     10.74775804	     -9.50629974	      2.67941936	     -8.56241225	      2.49281612	      2.55556300	     21.23969611	    -10.94732699	     12.21283848	     58.91949740	     45.81895541	      0.00000000	      0.00000000	      0.82910712	     -9.16013997	    -13.11675226	     34.12005780	     45.85739235	      0.00000000	      0.00000000
      9.25978571	     -4.84023942	     -4.24728055	      4.24000073	      1.05003621	      0.92463752	      0.43749496	     13.14464608	     -5.67321574	    -10.01338248	     45.79751375	     45.79751375	      7.85968717	    -12.24930099	    -11.13626872	     23.41364903	     -4.46955329	     -2.05893671	     26.40068103	     26.40068103	     11.21132797	     -9.04518112	      2.36162629	     -8.76764578	      2.31714716	      2.76356627	     19.79263008	    -11.42695925	     12.47870766	     57.32538365	     45.85111828	      0.00000000	      0.00000000	      1.79251971	     -9.49559876	    -13.09067297	     34.85015778	     45.87438347	      0.00000000	      0.00000000
      9.27285714	     -4.66692037	     -4.37515173	      3.99616478	      1.05012066	      0.92501479	      0.43579487	     14.98372109	     -5.83394197	     -9.18425092	     49.36258258	     49.36258258	      7.57624625	    -12.56982417	     -8.19548286	     22.87755823	     -4.83562109	     -2.98227048	     26.58145419	     26.58145419	     11.87509821	     -7.73705061	      1.79345315	     -8.84250583	      2.37459014	      2.29478398	     19.68129045	    -10.94399359	     12.84423568	     52.00580148	     45.98088600	      0.00000000	      0.00000000	      2.00883967	    -10.12048828	    -12.15310630	     36.32928417	     45.80153555	      0.00000000	      0.00000000
      9.28592857	     -4.48334027	     -4.40820227	      3.78640817	      1.04999106	      0.92545640	      0.43402769	     16.78521422	     -6.12334102	     -8.50626608	     52.62455824	     52.62455824	      7.35322699	    -12.54138458	     -5.69078394	     22.28033059	     -4.98977234	     -3.60706626	     26.64393936	     26.64393936	     12.39628744	     -6.99116602	      1.56513547	     -9.03665077	      2.34251235	      2.05205085	     18.83838962	    -10.99596051	     13.02566908	     48.74821843	     46.03370382	      0.00000000	      0.00000000	      2.57071034	    -10.64907874	    -11.52655267	     37.50799371	     45.78674640	      0.00000000	      0.00000000
